<svg xmlns="http://www.w3.org/2000/svg" xml:space="preserve" width="1000px" height="432px" version="1.1" style="shape-rendering:geometricPrecision; text-rendering:geometricPrecision; image-rendering:optimizeQuality; fill-rule:evenodd; clip-rule:evenodd"
viewBox="0 0 999.9 431.46"
 xmlns:xlink="http://www.w3.org/1999/xlink">
 <defs>
  <style type="text/css">
   <![CDATA[
    .fil0 {fill:black}
    .fil1 {fill:black;fill-rule:nonzero}
   ]]>
  </style>
 </defs>
 <g id="Camada_x0020_1">
  <metadata id="CorelCorpID_0Corel-Layer"/>
  <path class="fil0" d="M163.29 323.48c29.17,0 52.81,24.03 52.81,53.68 0,29.64 23.65,53.67 52.82,53.67l52.81 0c29.17,0 52.82,-24.03 52.82,-53.67 0,-29.65 -23.65,-53.68 -52.82,-53.68l-52.81 0c-29.17,0 -52.82,-24.03 -52.82,-53.68l0 -108.06 80.87 0 214.91 0c44.66,0 80.87,-36.21 80.87,-80.87 0,-44.66 -36.21,-80.87 -80.87,-80.87l-214.91 0c-44.66,0 -80.87,36.21 -80.87,80.87l0 27.19c0,29.65 -23.64,53.68 -52.81,53.68l-28.5 0 -54.14 0c-42.65,0 -77.59,33.02 -80.65,74.9l0 11.94c3.06,41.88 38,74.9 80.65,74.9l82.64 0z"/>
  <path class="fil1" d="M493.58 431.46c-14.43,0 -27.05,-3.11 -37.86,-9.33 -10.82,-6.22 -19.13,-15.13 -24.93,-26.73 -5.8,-11.59 -8.69,-25.17 -8.69,-40.72 0,-15.56 2.89,-29.1 8.69,-40.62 5.8,-11.53 14.11,-20.4 24.93,-26.63 10.81,-6.22 23.43,-9.33 37.86,-9.33 9.33,0 18.1,1.38 26.3,4.14 8.2,2.75 15.49,6.75 21.85,11.98 1.84,1.42 3.11,2.9 3.82,4.46 0.7,1.55 1.06,3.46 1.06,5.72 0,3.11 -0.85,5.73 -2.55,7.85 -1.69,2.12 -3.74,3.18 -6.15,3.18 -2.83,0 -5.73,-0.99 -8.7,-2.97 -6.08,-4.52 -11.73,-7.67 -16.96,-9.44 -5.24,-1.76 -11.03,-2.65 -17.4,-2.65 -14.71,0 -25.84,4.6 -33.41,13.79 -7.56,9.19 -11.35,22.7 -11.35,40.52 0,17.95 3.79,31.53 11.35,40.72 7.57,9.19 18.7,13.79 33.41,13.79 6.08,0 11.7,-0.92 16.86,-2.76 5.17,-1.84 11,-4.95 17.5,-9.33 1.42,-0.85 2.83,-1.56 4.25,-2.12 1.41,-0.57 2.9,-0.85 4.45,-0.85 2.41,0 4.46,1.06 6.15,3.18 1.7,2.12 2.55,4.74 2.55,7.85 0,2.12 -0.36,3.99 -1.06,5.62 -0.71,1.63 -1.98,3.15 -3.82,4.56 -6.36,5.23 -13.65,9.23 -21.85,11.99 -8.2,2.75 -16.97,4.13 -26.3,4.13zm119.85 -0.21c-10.61,0 -19.91,-2.19 -27.9,-6.58 -7.99,-4.38 -14.17,-10.67 -18.56,-18.87 -4.38,-8.21 -6.57,-17.75 -6.57,-28.64 0,-10.89 2.19,-20.4 6.57,-28.53 4.39,-8.13 10.57,-14.39 18.56,-18.77 7.99,-4.39 17.29,-6.58 27.9,-6.58 10.6,0 19.9,2.19 27.89,6.58 7.99,4.38 14.14,10.64 18.45,18.77 4.32,8.13 6.47,17.64 6.47,28.53 0,10.89 -2.15,20.43 -6.47,28.64 -4.31,8.2 -10.46,14.49 -18.45,18.87 -7.99,4.39 -17.29,6.58 -27.89,6.58zm-0.22 -20.58c8.63,0 15.21,-2.82 19.73,-8.48 4.53,-5.66 6.79,-14 6.79,-25.03 0,-10.89 -2.26,-19.2 -6.79,-24.92 -4.52,-5.73 -11.03,-8.59 -19.51,-8.59 -8.49,0 -15.03,2.86 -19.63,8.59 -4.59,5.72 -6.89,14.03 -6.89,24.92 0,11.03 2.26,19.37 6.79,25.03 4.52,5.66 11.03,8.48 19.51,8.48zm161.43 -131.72c3.95,0 7.21,1.13 9.75,3.39 2.55,2.27 3.82,5.24 3.82,8.91l0 126.85c0,3.82 -1.2,6.86 -3.61,9.12 -2.4,2.26 -5.58,3.39 -9.54,3.39 -3.96,0 -7.14,-1.13 -9.55,-3.39 -2.4,-2.26 -3.6,-5.3 -3.6,-9.12l0 -5.3c-3.11,5.79 -7.6,10.32 -13.47,13.57 -5.87,3.25 -12.55,4.88 -20.05,4.88 -8.91,0 -16.86,-2.26 -23.86,-6.79 -7,-4.52 -12.44,-10.92 -16.33,-19.19 -3.89,-8.28 -5.84,-17.79 -5.84,-28.53 0,-10.75 1.95,-20.16 5.84,-28.22 3.89,-8.06 9.29,-14.28 16.22,-18.66 6.93,-4.39 14.92,-6.58 23.97,-6.58 7.5,0 14.14,1.56 19.94,4.67 5.8,3.11 10.25,7.49 13.37,13.15l0 -50.27c0,-3.54 1.16,-6.4 3.5,-8.59 2.33,-2.19 5.48,-3.29 9.44,-3.29zm-39.25 131.72c8.49,0 15.03,-2.89 19.62,-8.69 4.6,-5.8 6.9,-14.07 6.9,-24.82 0,-10.75 -2.3,-18.98 -6.9,-24.71 -4.59,-5.73 -11.06,-8.59 -19.4,-8.59 -8.49,0 -15.07,2.83 -19.73,8.48 -4.67,5.66 -7,13.79 -7,24.4 0,10.74 2.33,19.09 7,25.03 4.66,5.94 11.17,8.9 19.51,8.9zm125.15 -87.39c14.43,0 25.14,3.57 32.14,10.71 7,7.15 10.5,18 10.5,32.56l0 51.76c0,3.82 -1.13,6.82 -3.39,9.02 -2.27,2.19 -5.38,3.28 -9.34,3.28 -3.68,0 -6.68,-1.13 -9.01,-3.39 -2.34,-2.26 -3.5,-5.23 -3.5,-8.91l0 -4.67c-2.41,5.52 -6.19,9.83 -11.35,12.94 -5.16,3.11 -11.14,4.67 -17.93,4.67 -6.92,0 -13.22,-1.41 -18.87,-4.24 -5.66,-2.83 -10.11,-6.72 -13.37,-11.67 -3.25,-4.95 -4.88,-10.46 -4.88,-16.54 0,-7.64 1.95,-13.65 5.84,-18.03 3.89,-4.39 10.21,-7.57 18.98,-9.55 8.77,-1.98 20.86,-2.97 36.27,-2.97l5.31 0 0 -4.88c0,-6.93 -1.49,-11.98 -4.46,-15.16 -2.97,-3.19 -7.78,-4.78 -14.42,-4.78 -4.1,0 -8.27,0.6 -12.52,1.81 -4.24,1.2 -9.26,2.93 -15.06,5.19 -3.67,1.84 -6.36,2.76 -8.06,2.76 -2.54,0 -4.63,-0.92 -6.25,-2.76 -1.63,-1.83 -2.44,-4.24 -2.44,-7.21 0,-2.4 0.6,-4.49 1.8,-6.26 1.2,-1.76 3.22,-3.43 6.04,-4.98 4.95,-2.69 10.86,-4.81 17.72,-6.36 6.85,-1.56 13.61,-2.34 20.25,-2.34zm-6.57 88.88c7.07,0 12.83,-2.37 17.29,-7.11 4.45,-4.73 6.68,-10.85 6.68,-18.34l0 -4.46 -3.82 0c-9.48,0 -16.83,0.43 -22.06,1.27 -5.23,0.85 -8.98,2.34 -11.24,4.46 -2.27,2.12 -3.4,5.02 -3.4,8.69 0,4.53 1.59,8.24 4.77,11.14 3.19,2.9 7.11,4.35 11.78,4.35zm134.06 -88.45c3.67,-0.29 6.57,0.49 8.69,2.33 2.12,1.84 3.18,4.6 3.18,8.27 0,3.82 -0.91,6.65 -2.75,8.49 -1.84,1.84 -5.16,3.04 -9.97,3.6l-6.37 0.64c-8.34,0.85 -14.46,3.68 -18.34,8.48 -3.89,4.81 -5.84,10.82 -5.84,18.03l0 44.55c0,4.1 -1.27,7.25 -3.82,9.44 -2.54,2.19 -5.72,3.29 -9.54,3.29 -3.82,0 -6.97,-1.1 -9.44,-3.29 -2.47,-2.19 -3.71,-5.34 -3.71,-9.44l0 -82.09c0,-3.96 1.24,-7 3.71,-9.12 2.47,-2.12 5.55,-3.18 9.23,-3.18 3.67,0 6.64,1.02 8.91,3.07 2.26,2.05 3.39,4.99 3.39,8.8l0 8.49c2.69,-6.22 6.68,-11.03 11.98,-14.42 5.31,-3.4 11.21,-5.31 17.72,-5.73l2.97 -0.21z"/>
 </g>
</svg>
